<svg width="75" height="75" viewBox="0 0 75 75" xmlns="http://www.w3.org/2000/svg" xmlns:xlink="http://www.w3.org/1999/xlink" id="Product_Icon" overflow="hidden"><defs><linearGradient x1="-15.53" y1="-15.53" x2="90.53" y2="90.53" gradientUnits="userSpaceOnUse" id="GreenGradient" gradientTransform="matrix(0 -1 1 0 0 75)"><stop offset="0" stop-color="#1B660F"/><stop offset="1" stop-color="#6CAE3E"/></linearGradient></defs><rect x="0" y="0" width="75" height="75" id="Green_Gradient" fill="url(#GreenGradient)"/><g id="Icon_Test"><path d="M61.43 40.06C61.14 38.49 59.36 37.38 58.14 36.59 57.75 36.34 56.68 35.94 56.59 35.59 56.5839 35.3396 56.6176 35.0898 56.69 34.85L57.69 27.66C57.98 25.55 58.26 23.44 58.55 21.33 58.81 19.39 57.88 18.09 56.3 17 53.08 14.77 48.88 13.87 45.09 13.25 40.337 12.474 35.5035 12.316 30.71 12.78 26.3987 13.0964 22.1671 14.1095 18.18 15.78 16.04 16.78 13.24 18.34 13.59 21.07 14.59 29.19 15.77 37.29 16.86 45.4 17.36 49.11 17.86 52.82 18.36 56.53 18.5243 58.0005 19.4627 59.2708 20.82 59.86 23.92 61.54 27.76 62.02 31.22 62.34 35.8199 62.7555 40.4548 62.5503 45 61.73 47.88 61.2 53.24 60.33 53.7 56.73 54.27 52.27 54.9 47.81 55.5 43.36L55.72 42C57.35 42.39 62 43.22 61.43 40.06ZM36.05 14.5C42.05 14.5 48.92 15.18 54.3 18.14 55.13 18.6 57.06 19.63 56.48 20.85 55.9 22.07 54.1 22.68 53 23.12 51.4293 23.7002 49.8139 24.1517 48.17 24.47 41.0317 25.8841 33.7009 26.0364 26.51 24.92 23.263 24.5852 20.1045 23.66 17.19 22.19 16.47 21.78 15.28 21.04 15.61 20.06 15.8714 19.5335 16.2817 19.0953 16.79 18.8 18.9865 17.3874 21.4289 16.4003 23.99 15.89 27.9392 14.942 31.9887 14.4752 36.05 14.5ZM51.73 56.65C51.58 57.82 49.65 58.4 48.73 58.73 46.82 59.3689 44.8498 59.8112 42.85 60.05 38.4129 60.64 33.9171 60.64 29.48 60.05 26.7009 59.8344 23.9871 59.0983 21.48 57.88 20.7843 57.5776 20.3195 56.9076 20.28 56.15 19.28 48.22 18.14 40.29 17.07 32.36L15.91 23.76C18.1834 25.0148 20.6508 25.8801 23.21 26.32 25.951 26.8778 28.7279 27.2421 31.52 27.41 36.9998 27.8027 42.5073 27.4969 47.91 26.5 50.7887 26.086 53.5696 25.1579 56.12 23.76L54 39.46C48.9325 37.7905 43.9816 35.7861 39.18 33.46 38.9693 33.3796 38.7654 33.2826 38.57 33.17 38.3 32.97 38.37 33.07 38.24 32.76 37.99 32.19 37.93 31.76 37.4 31.29 36.4301 30.5132 35.0141 30.6697 34.2373 31.6396 33.4605 32.6095 33.617 34.0255 34.5869 34.8023 35.0308 35.1579 35.5929 35.3321 36.16 35.29 36.5047 35.2328 36.8407 35.132 37.16 34.99 37.55 34.87 37.55 34.89 37.96 35.08 42.8234 37.4515 47.8336 39.509 52.96 41.24 53.73 41.49 53.72 41.24 53.72 41.88 53.6875 42.3669 53.6241 42.8512 53.53 43.33L52.89 48.1ZM36.3 33C36.3 33.27 35.92 33.24 35.82 33.07 35.72 32.9 36.3 32.62 36.3 33ZM56 40 56.3 37.79C57.3 38.36 59 39.22 59.45 40.36 58.47 40.76 56.92 40.23 56 40Z" fill="#FFFFFF"/></g></svg>