<svg width="75" height="75" viewBox="0 0 75 75" xmlns="http://www.w3.org/2000/svg" xmlns:xlink="http://www.w3.org/1999/xlink" id="Product_Icon" overflow="hidden"><defs><linearGradient x1="-15.53" y1="90.53" x2="90.53" y2="-15.53" gradientUnits="userSpaceOnUse" id="PinkGradient"><stop offset="0" stop-color="#B0084D"/><stop offset="1" stop-color="#FF4F8B"/></linearGradient></defs><rect x="0" y="0" width="75" height="75" id="Pink_Gradient" fill="url(#PinkGradient)"/><g id="Icon_Test"><path d="M53.5 31.5 53.5 25.5C53.5 24.9477 53.0523 24.5 52.5 24.5L38.5 24.5 38.5 22.4C41.2056 21.8477 42.9513 19.2067 42.399 16.501 41.8467 13.7954 39.2056 12.0498 36.5 12.602 33.7944 13.1543 32.0487 15.7954 32.601 18.501 33.0018 20.4646 34.5364 21.9992 36.5 22.4L36.5 24.5 22.5 24.5C21.9477 24.5 21.5 24.9477 21.5 25.5L21.5 29.5 13.5 29.5C12.9477 29.5 12.5 29.9477 12.5 30.5L12.5 35.5C12.5 36.0523 12.9477 36.5 13.5 36.5L21.5 36.5 21.5 38.5 13.5 38.5C12.9477 38.5 12.5 38.9477 12.5 39.5L12.5 44.5C12.5 45.0523 12.9477 45.5 13.5 45.5L21.5 45.5 21.5 49.5C21.5 50.0523 21.9477 50.5 22.5 50.5L36.5 50.5 36.5 52.6C33.7944 53.1523 32.0487 55.7933 32.601 58.499 33.1533 61.2046 35.7944 62.9502 38.5 62.398 41.2056 61.8457 42.9513 59.2046 42.399 56.499 41.9982 54.5354 40.4636 53.0008 38.5 52.6L38.5 50.5 52.5 50.5C53.0523 50.5 53.5 50.0523 53.5 49.5L53.5 44.5 51.5 44.5 51.5 48.5 23.5 48.5 23.5 45.5 31.5 45.5C32.0523 45.5 32.5 45.0523 32.5 44.5L32.5 39.5C32.5 38.9477 32.0523 38.5 31.5 38.5L23.5 38.5 23.5 36.5 31.5 36.5C32.0523 36.5 32.5 36.0523 32.5 35.5L32.5 30.5C32.5 29.9477 32.0523 29.5 31.5 29.5L23.5 29.5 23.5 26.5 51.5 26.5 51.5 31.5ZM40.5 57.5C40.5 59.1569 39.1569 60.5 37.5 60.5 35.8431 60.5 34.5 59.1569 34.5 57.5 34.5 55.8431 35.8431 54.5 37.5 54.5 39.1569 54.5 40.5 55.8431 40.5 57.5ZM30.5 40.5 30.5 43.5 14.5 43.5 14.5 40.5ZM30.5 31.5 30.5 34.5 14.5 34.5 14.5 31.5ZM34.5 17.5C34.5 15.8431 35.8431 14.5 37.5 14.5 39.1569 14.5 40.5 15.8431 40.5 17.5 40.5 19.1569 39.1569 20.5 37.5 20.5 35.8431 20.5 34.5 19.1569 34.5 17.5Z" fill="#FFFFFF"/><path d="M61.5 33.5 41.5 33.5C40.9477 33.5 40.5 33.9477 40.5 34.5L40.5 41.5C40.5 42.0523 40.9477 42.5 41.5 42.5L61.5 42.5C62.0523 42.5 62.5 42.0523 62.5 41.5L62.5 34.5C62.5 33.9477 62.0523 33.5 61.5 33.5ZM60.5 40.5 42.5 40.5 42.5 35.5 60.5 35.5Z" fill="#FFFFFF"/></g></svg>